<svg width="86" height="32" viewBox="0 0 86 32" fill="none" xmlns="http://www.w3.org/2000/svg">
  <path
    d="M16 32C24.8366 32 32 24.8366 32 16C32 7.16344 24.8366 0 16 0C7.16344 0 0 7.16344 0 16C0 24.8366 7.16344 32 16 32Z"
    fill="#F25D00" />
  <path
    d="M15.1712 5.50391H10.2928C10.1249 5.50391 9.98877 5.64002 9.98877 5.80791V10.6863C9.98877 10.8542 10.1249 10.9903 10.2928 10.9903H15.1712C15.3391 10.9903 15.4752 10.8542 15.4752 10.6863V5.80791C15.4752 5.64002 15.3391 5.50391 15.1712 5.50391Z"
    fill="white" />
  <path
    d="M9.99036 19.5217V24.4001C9.99036 24.568 10.1265 24.7041 10.2944 24.7041H15.1728C15.3407 24.7041 15.4768 24.568 15.4768 24.4001V19.5217C15.4768 19.3538 15.3407 19.2177 15.1728 19.2177H10.2944C10.1265 19.2177 9.99036 19.3538 9.99036 19.5217Z"
    fill="white" />
  <path
    d="M9.98877 12.6655V17.5439C9.98877 17.7118 10.1249 17.8479 10.2928 17.8479H15.1712C15.3391 17.8479 15.4752 17.7118 15.4752 17.5439V12.6655C15.4752 12.4976 15.3391 12.3615 15.1712 12.3615H10.2928C10.1249 12.3615 9.98877 12.4976 9.98877 12.6655Z"
    fill="white" />
  <path
    d="M16.8464 19.5215V24.3999C16.8464 24.5678 16.9825 24.7039 17.1504 24.7039H22.0288C22.1967 24.7039 22.3328 24.5678 22.3328 24.3999V19.5215C22.3328 19.3536 22.1967 19.2175 22.0288 19.2175H17.1504C16.9825 19.2175 16.8464 19.3536 16.8464 19.5215Z"
    fill="white" />
  <path
    d="M16.8464 12.6638V17.5422C16.8464 17.7101 16.9825 17.8462 17.1504 17.8462H22.0288C22.1967 17.8462 22.3328 17.7101 22.3328 17.5422V12.6638C22.3328 12.4959 22.1967 12.3598 22.0288 12.3598H17.1504C16.9825 12.3598 16.8464 12.4959 16.8464 12.6638Z"
    fill="white" />
  <path
    d="M42 8.5H49.5747C52.3161 8.5 53.7188 10.3217 53.7188 12.3232C53.7188 14.2118 52.5972 15.4713 51.2372 15.7643C52.7699 16.0111 54 17.5637 54 19.4522C54 21.7006 52.5544 23.5 49.8131 23.5H42.0015V8.5H42ZM48.9054 14.5255C49.9414 14.5255 50.5893 13.828 50.5893 12.8615C50.5893 11.8949 49.9414 11.2197 48.9054 11.2197H45.0638V14.5255H48.9054ZM49.0139 20.7787C50.1798 20.7787 50.8705 20.0812 50.8705 19.0016C50.8705 18.0573 50.2226 17.2468 49.0139 17.2468H45.0653V20.7771H49.0139V20.7787Z"
    fill="white" />
  <path
    d="M74 8.5H81.5747C84.3161 8.5 85.7188 10.3217 85.7188 12.3232C85.7188 14.2118 84.5972 15.4713 83.2372 15.7643C84.7699 16.0111 86 17.5637 86 19.4522C86 21.7006 84.5544 23.5 81.8131 23.5H74.0015V8.5H74ZM80.9054 14.5255C81.9414 14.5255 82.5893 13.828 82.5893 12.8615C82.5893 11.8949 81.9414 11.2197 80.9054 11.2197H77.0638V14.5255H80.9054ZM81.0139 20.7787C82.1798 20.7787 82.8705 20.0812 82.8705 19.0016C82.8705 18.0573 82.2226 17.2468 81.0139 17.2468H77.0653V20.7771H81.0139V20.7787Z"
    fill="white" />
  <path
    d="M63.9886 8.5C68.6262 8.5 72 11.6301 72 16C72 20.3699 68.6246 23.5 63.9886 23.5C59.3527 23.5 56 20.3699 56 16C56 11.6301 59.3754 8.5 63.9886 8.5ZM63.9886 11.2385C61.1655 11.2385 59.3511 13.2816 59.3511 15.9985C59.3511 18.7154 61.1655 20.7584 63.9886 20.7584C66.8118 20.7584 68.6489 18.6938 68.6489 15.9985C68.6489 13.3031 66.8118 11.2385 63.9886 11.2385Z"
    fill="white" />
</svg>