<svg viewBox="0 0 1007 156" fill="none" xmlns="http://www.w3.org/2000/svg">
    <mask id="mask0_61_10043" style="mask-type:luminance" maskUnits="userSpaceOnUse" x="0" y="0" width="1007"
        height="156">
        <path d="M1007 0H0.244141V155.885H1007V0Z" fill="white" />
    </mask>
    <g mask="url(#mask0_61_10043)">
        <path d="M1007 0H0.244141V155.885H1007V0Z" fill="#11141C" />
        <path opacity="0.05"
            d="M227.576 0H175.614V51.9616M227.576 0V51.9616M227.576 0H279.538M175.614 51.9616H227.576M175.614 51.9616V103.923M227.576 51.9616V103.923M227.576 51.9616H279.538M279.538 0V51.9616M279.538 0H331.499M227.576 103.923H175.614M227.576 103.923V155.885M227.576 103.923H279.538M279.538 51.9616V103.923M279.538 51.9616H331.499M175.614 103.923V155.885H227.576M227.576 155.885H279.538M279.538 103.923V155.885M279.538 103.923H331.499M279.538 155.885H331.499M331.499 0V51.9616M331.499 0H383.461M331.499 51.9616V103.923M331.499 51.9616H383.461M331.499 103.923V155.885M331.499 103.923H383.461M331.499 155.885H383.461M383.461 0V51.9616M383.461 0H435.422M383.461 51.9616V103.923M383.461 51.9616H435.422M383.461 103.923V155.885M383.461 103.923H435.422M383.461 155.885H435.422M435.422 0V51.9616M435.422 0H487.384M435.422 51.9616V103.923M435.422 51.9616H487.384M435.422 103.923V155.885M435.422 103.923H487.384M435.422 155.885H487.384M487.384 0V51.9616M487.384 0H539.344M487.384 51.9616V103.923M487.384 51.9616H539.344M487.384 103.923V155.885M487.384 103.923H539.344M487.384 155.885H539.344M539.344 0V51.9616M539.344 0H591.305M539.344 51.9616V103.923M539.344 51.9616H591.305M695.228 0H747.19M695.228 0V51.9616M695.228 0H643.267M747.19 0V51.9616M747.19 0H799.152M695.228 51.9616H747.19M695.228 51.9616V103.923M695.228 51.9616H643.267M643.267 0H591.305M643.267 0V51.9616M747.19 51.9616V103.923M747.19 51.9616H799.152M799.152 0H851.113M799.152 0V51.9616M747.19 103.923H695.228M747.19 103.923V155.885M747.19 103.923H799.152M799.152 51.9616H851.113M799.152 51.9616V103.923M695.228 103.923V155.885M695.228 103.923H643.267M643.267 51.9616H591.305M643.267 51.9616V103.923M1007 51.9616V0H955.036M1007 51.9616V103.923M1007 51.9616H955.036M955.036 0H903.075M955.036 0V51.9616M1007 103.923V155.885H955.036M1007 103.923H955.036M955.036 51.9616H903.075M955.036 51.9616V103.923M539.344 103.923V155.885M539.344 103.923H591.305M747.19 155.885H695.228M747.19 155.885H799.152M799.152 103.923H851.113M799.152 103.923V155.885M695.228 155.885H643.267M643.267 103.923H591.305M643.267 103.923V155.885M955.036 155.885H903.075M955.036 155.885V103.923M955.036 103.923H903.075M539.344 155.885H591.305M799.152 155.885H851.113M643.267 155.885H591.305M591.305 0V51.9616M591.305 51.9616V103.923M851.113 0V51.9616M851.113 0H903.075M851.113 51.9616V103.923M851.113 51.9616H903.075M903.075 0V51.9616M851.113 103.923V155.885M851.113 103.923H903.075M903.075 51.9616V103.923M591.305 103.923V155.885M851.113 155.885H903.075M903.075 103.923V155.885"
            stroke="white" stroke-width="2" />
        <path
            d="M539.134 150.632C539.134 153.533 541.487 155.885 544.39 155.885H586.409C589.312 155.885 591.66 153.533 591.66 150.632V108.612C591.66 105.711 589.312 103.359 586.409 103.359H544.39C541.487 103.359 539.134 105.711 539.134 108.612V150.632Z"
            fill="#161B26" stroke="#11141C" stroke-width="2" />
        <path
            d="M591.305 47.2731C591.305 50.1739 593.658 52.5257 596.561 52.5257H638.58C641.483 52.5257 643.831 50.1739 643.831 47.2731V5.25257C643.831 2.35165 641.483 0 638.58 0L596.561 1.83678e-06C593.658 1.83678e-06 591.305 2.35165 591.305 5.25257V47.2731Z"
            fill="#161B26" stroke="#11141C" stroke-width="2" />
        <path
            d="M902.515 47.2731C902.515 50.1739 904.868 52.5257 907.766 52.5257H949.79C952.688 52.5257 955.041 50.1739 955.041 47.2731V5.25257C955.041 2.35165 952.688 0 949.79 0L907.766 1.83678e-06C904.868 1.83678e-06 902.515 2.35165 902.515 5.25257V47.2731Z"
            fill="#161B26" stroke="#11141C" stroke-width="2" />
        <path
            d="M955.041 47.2731C955.041 50.1739 957.39 52.5257 960.292 52.5257H1002.31C1005.21 52.5257 1007.57 50.1739 1007.57 47.2731V5.25257C1007.57 2.35165 1005.21 0 1002.31 0L960.292 1.83678e-06C957.39 1.83678e-06 955.041 2.35165 955.041 5.25257V47.2731Z"
            fill="#161B26" stroke="#11141C" stroke-width="2" />
        <path
            d="M955.041 99.7987C955.041 102.7 957.39 105.051 960.292 105.051H1002.31C1005.21 105.051 1007.57 102.7 1007.57 99.7987V57.7783C1007.57 54.8774 1005.21 52.5257 1002.31 52.5257H960.292C957.39 52.5257 955.041 54.8774 955.041 57.7783V99.7987Z"
            fill="#161B26" stroke="#11141C" stroke-width="2" />
        <path
            d="M798.877 150.632C798.877 153.533 801.225 155.885 804.128 155.885H846.147C849.05 155.885 851.403 153.533 851.403 150.632V108.612C851.403 105.711 849.05 103.359 846.147 103.359H804.128C801.225 103.359 798.877 105.711 798.877 108.612V150.632Z"
            fill="#161B26" stroke="#11141C" stroke-width="2" />
        <path
            d="M36.4733 16.939C36.4733 17.5547 35.9742 18.0538 35.3585 18.0538C34.7427 18.0538 34.2435 17.5547 34.2435 16.939C34.2435 16.3232 34.7427 15.824 35.3585 15.824C35.9742 15.824 36.4733 16.3232 36.4733 16.939Z"
            fill="#313743" />
        <path
            d="M75.4955 16.939C75.4955 17.5547 74.9963 18.0538 74.3803 18.0538C73.7648 18.0538 73.2656 17.5547 73.2656 16.939C73.2656 16.3232 73.7648 15.824 74.3803 15.824C74.9963 15.824 75.4955 16.3232 75.4955 16.939Z"
            fill="#313743" />
        <path
            d="M114.518 16.939C114.518 17.5547 114.019 18.0538 113.403 18.0538C112.787 18.0538 112.288 17.5547 112.288 16.939C112.288 16.3232 112.787 15.824 113.403 15.824C114.019 15.824 114.518 16.3232 114.518 16.939Z"
            fill="#313743" />
        <path
            d="M153.539 16.939C153.539 17.5547 153.04 18.0538 152.425 18.0538C151.809 18.0538 151.31 17.5547 151.31 16.939C151.31 16.3232 151.809 15.824 152.425 15.824C153.04 15.824 153.539 16.3232 153.539 16.939Z"
            fill="#313743" />
        <path
            d="M192.561 16.939C192.561 17.5547 192.062 18.0538 191.447 18.0538C190.831 18.0538 190.332 17.5547 190.332 16.939C190.332 16.3232 190.831 15.824 191.447 15.824C192.062 15.824 192.561 16.3232 192.561 16.939Z"
            fill="#313743" />
        <path
            d="M231.584 16.939C231.584 17.5547 231.084 18.0538 230.469 18.0538C229.853 18.0538 229.354 17.5547 229.354 16.939C229.354 16.3232 229.853 15.824 230.469 15.824C231.084 15.824 231.584 16.3232 231.584 16.939Z"
            fill="#313743" />
        <path
            d="M270.606 16.939C270.606 17.5547 270.107 18.0538 269.491 18.0538C268.875 18.0538 268.376 17.5547 268.376 16.939C268.376 16.3232 268.875 15.824 269.491 15.824C270.107 15.824 270.606 16.3232 270.606 16.939Z"
            fill="#313743" />
        <path
            d="M309.628 16.939C309.628 17.5547 309.129 18.0538 308.513 18.0538C307.897 18.0538 307.398 17.5547 307.398 16.939C307.398 16.3232 307.897 15.824 308.513 15.824C309.129 15.824 309.628 16.3232 309.628 16.939Z"
            fill="#313743" />
        <path
            d="M348.65 16.939C348.65 17.5547 348.15 18.0538 347.535 18.0538C346.919 18.0538 346.42 17.5547 346.42 16.939C346.42 16.3232 346.919 15.824 347.535 15.824C348.15 15.824 348.65 16.3232 348.65 16.939Z"
            fill="#313743" />
        <path
            d="M387.672 16.939C387.672 17.5547 387.173 18.0538 386.557 18.0538C385.941 18.0538 385.442 17.5547 385.442 16.939C385.442 16.3232 385.941 15.824 386.557 15.824C387.173 15.824 387.672 16.3232 387.672 16.939Z"
            fill="#313743" />
        <path
            d="M426.694 16.939C426.694 17.5547 426.195 18.0538 425.579 18.0538C424.963 18.0538 424.464 17.5547 424.464 16.939C424.464 16.3232 424.963 15.824 425.579 15.824C426.195 15.824 426.694 16.3232 426.694 16.939Z"
            fill="#313743" />
        <path
            d="M465.716 16.939C465.716 17.5547 465.217 18.0538 464.601 18.0538C463.985 18.0538 463.486 17.5547 463.486 16.939C463.486 16.3232 463.985 15.824 464.601 15.824C465.217 15.824 465.716 16.3232 465.716 16.939Z"
            fill="#313743" />
        <path
            d="M504.739 16.939C504.739 17.5547 504.24 18.0538 503.625 18.0538C503.005 18.0538 502.506 17.5547 502.506 16.939C502.506 16.3232 503.005 15.824 503.625 15.824C504.24 15.824 504.739 16.3232 504.739 16.939Z"
            fill="#313743" />
        <path
            d="M543.76 16.939C543.76 17.5547 543.261 18.0538 542.646 18.0538C542.032 18.0538 541.532 17.5547 541.532 16.939C541.532 16.3232 542.032 15.824 542.646 15.824C543.261 15.824 543.76 16.3232 543.76 16.939Z"
            fill="#313743" />
        <path
            d="M582.781 16.939C582.781 17.5547 582.282 18.0538 581.667 18.0538C581.053 18.0538 580.553 17.5547 580.553 16.939C580.553 16.3232 581.053 15.824 581.667 15.824C582.282 15.824 582.781 16.3232 582.781 16.939Z"
            fill="#313743" />
        <path
            d="M621.803 16.939C621.803 17.5547 621.303 18.0538 620.688 18.0538C620.074 18.0538 619.574 17.5547 619.574 16.939C619.574 16.3232 620.074 15.824 620.688 15.824C621.303 15.824 621.803 16.3232 621.803 16.939Z"
            fill="#313743" />
        <path
            d="M660.824 16.939C660.824 17.5547 660.329 18.0538 659.71 18.0538C659.095 18.0538 658.595 17.5547 658.595 16.939C658.595 16.3232 659.095 15.824 659.71 15.824C660.329 15.824 660.824 16.3232 660.824 16.939Z"
            fill="#313743" />
        <path
            d="M699.85 16.939C699.85 17.5547 699.35 18.0538 698.731 18.0538C698.116 18.0538 697.617 17.5547 697.617 16.939C697.617 16.3232 698.116 15.824 698.731 15.824C699.35 15.824 699.85 16.3232 699.85 16.939Z"
            fill="#313743" />
        <path
            d="M738.871 16.939C738.871 17.5547 738.371 18.0538 737.757 18.0538C737.137 18.0538 736.643 17.5547 736.643 16.939C736.643 16.3232 737.137 15.824 737.757 15.824C738.371 15.824 738.871 16.3232 738.871 16.939Z"
            fill="#313743" />
        <path
            d="M777.892 16.939C777.892 17.5547 777.393 18.0538 776.778 18.0538C776.164 18.0538 775.664 17.5547 775.664 16.939C775.664 16.3232 776.164 15.824 776.778 15.824C777.393 15.824 777.892 16.3232 777.892 16.939Z"
            fill="#313743" />
        <path
            d="M816.913 16.939C816.913 17.5547 816.414 18.0538 815.799 18.0538C815.185 18.0538 814.685 17.5547 814.685 16.939C814.685 16.3232 815.185 15.824 815.799 15.824C816.414 15.824 816.913 16.3232 816.913 16.939Z"
            fill="#313743" />
        <path
            d="M855.935 16.939C855.935 17.5547 855.435 18.0538 854.82 18.0538C854.206 18.0538 853.706 17.5547 853.706 16.939C853.706 16.3232 854.206 15.824 854.82 15.824C855.435 15.824 855.935 16.3232 855.935 16.939Z"
            fill="#313743" />
        <path
            d="M894.961 16.939C894.961 17.5547 894.461 18.0538 893.842 18.0538C893.227 18.0538 892.728 17.5547 892.728 16.939C892.728 16.3232 893.227 15.824 893.842 15.824C894.461 15.824 894.961 16.3232 894.961 16.939Z"
            fill="#313743" />
        <path
            d="M933.982 16.939C933.982 17.5547 933.482 18.0538 932.868 18.0538C932.248 18.0538 931.749 17.5547 931.749 16.939C931.749 16.3232 932.248 15.824 932.868 15.824C933.482 15.824 933.982 16.3232 933.982 16.939Z"
            fill="#313743" />
        <path
            d="M973.003 16.939C973.003 17.5547 972.504 18.0538 971.889 18.0538C971.275 18.0538 970.775 17.5547 970.775 16.939C970.775 16.3232 971.275 15.824 971.889 15.824C972.504 15.824 973.003 16.3232 973.003 16.939Z"
            fill="#313743" />
        <path
            d="M36.4733 55.9611C36.4733 56.5767 35.9742 57.0758 35.3585 57.0758C34.7427 57.0758 34.2435 56.5767 34.2435 55.9611C34.2435 55.3451 34.7427 54.8459 35.3585 54.8459C35.9742 54.8459 36.4733 55.3451 36.4733 55.9611Z"
            fill="#313743" />
        <path
            d="M75.4955 55.9611C75.4955 56.5767 74.9963 57.0758 74.3803 57.0758C73.7648 57.0758 73.2656 56.5767 73.2656 55.9611C73.2656 55.3451 73.7648 54.8459 74.3803 54.8459C74.9963 54.8459 75.4955 55.3451 75.4955 55.9611Z"
            fill="#313743" />
        <path
            d="M114.518 55.9611C114.518 56.5767 114.019 57.0758 113.403 57.0758C112.787 57.0758 112.288 56.5767 112.288 55.9611C112.288 55.3451 112.787 54.8459 113.403 54.8459C114.019 54.8459 114.518 55.3451 114.518 55.9611Z"
            fill="#313743" />
        <path
            d="M153.539 55.9611C153.539 56.5767 153.04 57.0758 152.425 57.0758C151.809 57.0758 151.31 56.5767 151.31 55.9611C151.31 55.3451 151.809 54.8459 152.425 54.8459C153.04 54.8459 153.539 55.3451 153.539 55.9611Z"
            fill="#313743" />
        <path
            d="M192.561 55.9611C192.561 56.5767 192.062 57.0758 191.447 57.0758C190.831 57.0758 190.332 56.5767 190.332 55.9611C190.332 55.3451 190.831 54.8459 191.447 54.8459C192.062 54.8459 192.561 55.3451 192.561 55.9611Z"
            fill="#313743" />
        <path
            d="M231.584 55.9611C231.584 56.5767 231.084 57.0758 230.469 57.0758C229.853 57.0758 229.354 56.5767 229.354 55.9611C229.354 55.3451 229.853 54.8459 230.469 54.8459C231.084 54.8459 231.584 55.3451 231.584 55.9611Z"
            fill="#313743" />
        <path
            d="M270.606 55.9611C270.606 56.5767 270.107 57.0758 269.491 57.0758C268.875 57.0758 268.376 56.5767 268.376 55.9611C268.376 55.3451 268.875 54.8459 269.491 54.8459C270.107 54.8459 270.606 55.3451 270.606 55.9611Z"
            fill="#313743" />
        <path
            d="M309.628 55.9611C309.628 56.5767 309.129 57.0758 308.513 57.0758C307.897 57.0758 307.398 56.5767 307.398 55.9611C307.398 55.3451 307.897 54.8459 308.513 54.8459C309.129 54.8459 309.628 55.3451 309.628 55.9611Z"
            fill="#313743" />
        <path
            d="M348.65 55.9611C348.65 56.5767 348.15 57.0758 347.535 57.0758C346.919 57.0758 346.42 56.5767 346.42 55.9611C346.42 55.3451 346.919 54.8459 347.535 54.8459C348.15 54.8459 348.65 55.3451 348.65 55.9611Z"
            fill="#313743" />
        <path
            d="M387.672 55.9611C387.672 56.5767 387.173 57.0758 386.557 57.0758C385.941 57.0758 385.442 56.5767 385.442 55.9611C385.442 55.3451 385.941 54.8459 386.557 54.8459C387.173 54.8459 387.672 55.3451 387.672 55.9611Z"
            fill="#313743" />
        <path
            d="M426.694 55.9611C426.694 56.5767 426.195 57.0758 425.579 57.0758C424.963 57.0758 424.464 56.5767 424.464 55.9611C424.464 55.3451 424.963 54.8459 425.579 54.8459C426.195 54.8459 426.694 55.3451 426.694 55.9611Z"
            fill="#313743" />
        <path
            d="M465.716 55.9611C465.716 56.5767 465.217 57.0758 464.601 57.0758C463.985 57.0758 463.486 56.5767 463.486 55.9611C463.486 55.3451 463.985 54.8459 464.601 54.8459C465.217 54.8459 465.716 55.3451 465.716 55.9611Z"
            fill="#313743" />
        <path
            d="M504.739 55.9611C504.739 56.5767 504.24 57.0758 503.625 57.0758C503.005 57.0758 502.506 56.5767 502.506 55.9611C502.506 55.3451 503.005 54.8459 503.625 54.8459C504.24 54.8459 504.739 55.3451 504.739 55.9611Z"
            fill="#313743" />
        <path
            d="M543.76 55.9611C543.76 56.5767 543.261 57.0758 542.646 57.0758C542.032 57.0758 541.532 56.5767 541.532 55.9611C541.532 55.3451 542.032 54.8459 542.646 54.8459C543.261 54.8459 543.76 55.3451 543.76 55.9611Z"
            fill="#313743" />
        <path
            d="M582.781 55.9611C582.781 56.5767 582.282 57.0758 581.667 57.0758C581.053 57.0758 580.553 56.5767 580.553 55.9611C580.553 55.3451 581.053 54.8459 581.667 54.8459C582.282 54.8459 582.781 55.3451 582.781 55.9611Z"
            fill="#313743" />
        <path
            d="M621.803 55.9611C621.803 56.5767 621.303 57.0758 620.688 57.0758C620.074 57.0758 619.574 56.5767 619.574 55.9611C619.574 55.3451 620.074 54.8459 620.688 54.8459C621.303 54.8459 621.803 55.3451 621.803 55.9611Z"
            fill="#313743" />
        <path
            d="M660.824 55.9611C660.824 56.5767 660.329 57.0758 659.71 57.0758C659.095 57.0758 658.595 56.5767 658.595 55.9611C658.595 55.3451 659.095 54.8459 659.71 54.8459C660.329 54.8459 660.824 55.3451 660.824 55.9611Z"
            fill="#313743" />
        <path
            d="M699.85 55.9611C699.85 56.5767 699.35 57.0758 698.731 57.0758C698.116 57.0758 697.617 56.5767 697.617 55.9611C697.617 55.3451 698.116 54.8459 698.731 54.8459C699.35 54.8459 699.85 55.3451 699.85 55.9611Z"
            fill="#313743" />
        <path
            d="M738.871 55.9611C738.871 56.5767 738.371 57.0758 737.757 57.0758C737.137 57.0758 736.643 56.5767 736.643 55.9611C736.643 55.3451 737.137 54.8459 737.757 54.8459C738.371 54.8459 738.871 55.3451 738.871 55.9611Z"
            fill="#313743" />
        <path
            d="M777.892 55.9611C777.892 56.5767 777.393 57.0758 776.778 57.0758C776.164 57.0758 775.664 56.5767 775.664 55.9611C775.664 55.3451 776.164 54.8459 776.778 54.8459C777.393 54.8459 777.892 55.3451 777.892 55.9611Z"
            fill="#313743" />
        <path
            d="M816.913 55.9611C816.913 56.5767 816.414 57.0758 815.799 57.0758C815.185 57.0758 814.685 56.5767 814.685 55.9611C814.685 55.3451 815.185 54.8459 815.799 54.8459C816.414 54.8459 816.913 55.3451 816.913 55.9611Z"
            fill="#313743" />
        <path
            d="M855.935 55.9611C855.935 56.5767 855.435 57.0758 854.82 57.0758C854.206 57.0758 853.706 56.5767 853.706 55.9611C853.706 55.3451 854.206 54.8459 854.82 54.8459C855.435 54.8459 855.935 55.3451 855.935 55.9611Z"
            fill="#313743" />
        <path
            d="M894.961 55.9611C894.961 56.5767 894.461 57.0758 893.842 57.0758C893.227 57.0758 892.728 56.5767 892.728 55.9611C892.728 55.3451 893.227 54.8459 893.842 54.8459C894.461 54.8459 894.961 55.3451 894.961 55.9611Z"
            fill="#313743" />
        <path
            d="M933.982 55.9611C933.982 56.5767 933.482 57.0758 932.868 57.0758C932.248 57.0758 931.749 56.5767 931.749 55.9611C931.749 55.3451 932.248 54.8459 932.868 54.8459C933.482 54.8459 933.982 55.3451 933.982 55.9611Z"
            fill="#313743" />
        <path
            d="M973.003 55.9611C973.003 56.5767 972.504 57.0758 971.889 57.0758C971.275 57.0758 970.775 56.5767 970.775 55.9611C970.775 55.3451 971.275 54.8459 971.889 54.8459C972.504 54.8459 973.003 55.3451 973.003 55.9611Z"
            fill="#313743" />
        <path
            d="M36.4733 94.9833C36.4733 95.5988 35.9742 96.098 35.3585 96.098C34.7427 96.098 34.2435 95.5988 34.2435 94.9833C34.2435 94.3672 34.7427 93.8681 35.3585 93.8681C35.9742 93.8681 36.4733 94.3672 36.4733 94.9833Z"
            fill="#313743" />
        <path
            d="M75.4955 94.9833C75.4955 95.5988 74.9963 96.098 74.3803 96.098C73.7648 96.098 73.2656 95.5988 73.2656 94.9833C73.2656 94.3672 73.7648 93.8681 74.3803 93.8681C74.9963 93.8681 75.4955 94.3672 75.4955 94.9833Z"
            fill="#313743" />
        <path
            d="M114.518 94.9833C114.518 95.5988 114.019 96.098 113.403 96.098C112.787 96.098 112.288 95.5988 112.288 94.9833C112.288 94.3672 112.787 93.8681 113.403 93.8681C114.019 93.8681 114.518 94.3672 114.518 94.9833Z"
            fill="#313743" />
        <path
            d="M153.539 94.9833C153.539 95.5988 153.04 96.098 152.425 96.098C151.809 96.098 151.31 95.5988 151.31 94.9833C151.31 94.3672 151.809 93.8681 152.425 93.8681C153.04 93.8681 153.539 94.3672 153.539 94.9833Z"
            fill="#313743" />
        <path
            d="M192.561 94.9833C192.561 95.5988 192.062 96.098 191.447 96.098C190.831 96.098 190.332 95.5988 190.332 94.9833C190.332 94.3672 190.831 93.8681 191.447 93.8681C192.062 93.8681 192.561 94.3672 192.561 94.9833Z"
            fill="#313743" />
        <path
            d="M231.584 94.9833C231.584 95.5988 231.084 96.098 230.469 96.098C229.853 96.098 229.354 95.5988 229.354 94.9833C229.354 94.3672 229.853 93.8681 230.469 93.8681C231.084 93.8681 231.584 94.3672 231.584 94.9833Z"
            fill="#313743" />
        <path
            d="M270.606 94.9833C270.606 95.5988 270.107 96.098 269.491 96.098C268.875 96.098 268.376 95.5988 268.376 94.9833C268.376 94.3672 268.875 93.8681 269.491 93.8681C270.107 93.8681 270.606 94.3672 270.606 94.9833Z"
            fill="#313743" />
        <path
            d="M309.628 94.9833C309.628 95.5988 309.129 96.098 308.513 96.098C307.897 96.098 307.398 95.5988 307.398 94.9833C307.398 94.3672 307.897 93.8681 308.513 93.8681C309.129 93.8681 309.628 94.3672 309.628 94.9833Z"
            fill="#313743" />
        <path
            d="M348.65 94.9833C348.65 95.5988 348.15 96.098 347.535 96.098C346.919 96.098 346.42 95.5988 346.42 94.9833C346.42 94.3672 346.919 93.8681 347.535 93.8681C348.15 93.8681 348.65 94.3672 348.65 94.9833Z"
            fill="#313743" />
        <path
            d="M387.672 94.9833C387.672 95.5988 387.173 96.098 386.557 96.098C385.941 96.098 385.442 95.5988 385.442 94.9833C385.442 94.3672 385.941 93.8681 386.557 93.8681C387.173 93.8681 387.672 94.3672 387.672 94.9833Z"
            fill="#313743" />
        <path
            d="M426.694 94.9833C426.694 95.5988 426.195 96.098 425.579 96.098C424.963 96.098 424.464 95.5988 424.464 94.9833C424.464 94.3672 424.963 93.8681 425.579 93.8681C426.195 93.8681 426.694 94.3672 426.694 94.9833Z"
            fill="#313743" />
        <path
            d="M465.716 94.9833C465.716 95.5988 465.217 96.098 464.601 96.098C463.985 96.098 463.486 95.5988 463.486 94.9833C463.486 94.3672 463.985 93.8681 464.601 93.8681C465.217 93.8681 465.716 94.3672 465.716 94.9833Z"
            fill="#313743" />
        <path
            d="M504.739 94.9833C504.739 95.5988 504.24 96.098 503.625 96.098C503.005 96.098 502.506 95.5988 502.506 94.9833C502.506 94.3672 503.005 93.8681 503.625 93.8681C504.24 93.8681 504.739 94.3672 504.739 94.9833Z"
            fill="#313743" />
        <path
            d="M543.76 94.9833C543.76 95.5988 543.261 96.098 542.646 96.098C542.032 96.098 541.532 95.5988 541.532 94.9833C541.532 94.3672 542.032 93.8681 542.646 93.8681C543.261 93.8681 543.76 94.3672 543.76 94.9833Z"
            fill="#313743" />
        <path
            d="M582.781 94.9833C582.781 95.5988 582.282 96.098 581.667 96.098C581.053 96.098 580.553 95.5988 580.553 94.9833C580.553 94.3672 581.053 93.8681 581.667 93.8681C582.282 93.8681 582.781 94.3672 582.781 94.9833Z"
            fill="#313743" />
        <path
            d="M621.803 94.9833C621.803 95.5988 621.303 96.098 620.688 96.098C620.074 96.098 619.574 95.5988 619.574 94.9833C619.574 94.3672 620.074 93.8681 620.688 93.8681C621.303 93.8681 621.803 94.3672 621.803 94.9833Z"
            fill="#313743" />
        <path
            d="M660.824 94.9833C660.824 95.5988 660.329 96.098 659.71 96.098C659.095 96.098 658.595 95.5988 658.595 94.9833C658.595 94.3672 659.095 93.8681 659.71 93.8681C660.329 93.8681 660.824 94.3672 660.824 94.9833Z"
            fill="#313743" />
        <path
            d="M699.85 94.9833C699.85 95.5988 699.35 96.098 698.731 96.098C698.116 96.098 697.617 95.5988 697.617 94.9833C697.617 94.3672 698.116 93.8681 698.731 93.8681C699.35 93.8681 699.85 94.3672 699.85 94.9833Z"
            fill="#313743" />
        <path
            d="M738.871 94.9833C738.871 95.5988 738.371 96.098 737.757 96.098C737.137 96.098 736.643 95.5988 736.643 94.9833C736.643 94.3672 737.137 93.8681 737.757 93.8681C738.371 93.8681 738.871 94.3672 738.871 94.9833Z"
            fill="#313743" />
        <path
            d="M777.892 94.9833C777.892 95.5988 777.393 96.098 776.778 96.098C776.164 96.098 775.664 95.5988 775.664 94.9833C775.664 94.3672 776.164 93.8681 776.778 93.8681C777.393 93.8681 777.892 94.3672 777.892 94.9833Z"
            fill="#313743" />
        <path
            d="M816.913 94.9833C816.913 95.5988 816.414 96.098 815.799 96.098C815.185 96.098 814.685 95.5988 814.685 94.9833C814.685 94.3672 815.185 93.8681 815.799 93.8681C816.414 93.8681 816.913 94.3672 816.913 94.9833Z"
            fill="#313743" />
        <path
            d="M855.935 94.9833C855.935 95.5988 855.435 96.098 854.82 96.098C854.206 96.098 853.706 95.5988 853.706 94.9833C853.706 94.3672 854.206 93.8681 854.82 93.8681C855.435 93.8681 855.935 94.3672 855.935 94.9833Z"
            fill="#313743" />
        <path
            d="M894.961 94.9833C894.961 95.5988 894.461 96.098 893.842 96.098C893.227 96.098 892.728 95.5988 892.728 94.9833C892.728 94.3672 893.227 93.8681 893.842 93.8681C894.461 93.8681 894.961 94.3672 894.961 94.9833Z"
            fill="#313743" />
        <path
            d="M933.982 94.9833C933.982 95.5988 933.482 96.098 932.868 96.098C932.248 96.098 931.749 95.5988 931.749 94.9833C931.749 94.3672 932.248 93.8681 932.868 93.8681C933.482 93.8681 933.982 94.3672 933.982 94.9833Z"
            fill="#313743" />
        <path
            d="M973.003 94.9833C973.003 95.5988 972.504 96.098 971.889 96.098C971.275 96.098 970.775 95.5988 970.775 94.9833C970.775 94.3672 971.275 93.8681 971.889 93.8681C972.504 93.8681 973.003 94.3672 973.003 94.9833Z"
            fill="#313743" />
        <path
            d="M36.4733 134.005C36.4733 134.621 35.9742 135.12 35.3585 135.12C34.7427 135.12 34.2435 134.621 34.2435 134.005C34.2435 133.389 34.7427 132.89 35.3585 132.89C35.9742 132.89 36.4733 133.389 36.4733 134.005Z"
            fill="#313743" />
        <path
            d="M75.4955 134.005C75.4955 134.621 74.9963 135.12 74.3803 135.12C73.7648 135.12 73.2656 134.621 73.2656 134.005C73.2656 133.389 73.7648 132.89 74.3803 132.89C74.9963 132.89 75.4955 133.389 75.4955 134.005Z"
            fill="#313743" />
        <path
            d="M114.518 134.005C114.518 134.621 114.019 135.12 113.403 135.12C112.787 135.12 112.288 134.621 112.288 134.005C112.288 133.389 112.787 132.89 113.403 132.89C114.019 132.89 114.518 133.389 114.518 134.005Z"
            fill="#313743" />
        <path
            d="M153.539 134.005C153.539 134.621 153.04 135.12 152.425 135.12C151.809 135.12 151.31 134.621 151.31 134.005C151.31 133.389 151.809 132.89 152.425 132.89C153.04 132.89 153.539 133.389 153.539 134.005Z"
            fill="#313743" />
        <path
            d="M192.561 134.005C192.561 134.621 192.062 135.12 191.447 135.12C190.831 135.12 190.332 134.621 190.332 134.005C190.332 133.389 190.831 132.89 191.447 132.89C192.062 132.89 192.561 133.389 192.561 134.005Z"
            fill="#313743" />
        <path
            d="M231.584 134.005C231.584 134.621 231.084 135.12 230.469 135.12C229.853 135.12 229.354 134.621 229.354 134.005C229.354 133.389 229.853 132.89 230.469 132.89C231.084 132.89 231.584 133.389 231.584 134.005Z"
            fill="#313743" />
        <path
            d="M270.606 134.005C270.606 134.621 270.107 135.12 269.491 135.12C268.875 135.12 268.376 134.621 268.376 134.005C268.376 133.389 268.875 132.89 269.491 132.89C270.107 132.89 270.606 133.389 270.606 134.005Z"
            fill="#313743" />
        <path
            d="M309.628 134.005C309.628 134.621 309.129 135.12 308.513 135.12C307.897 135.12 307.398 134.621 307.398 134.005C307.398 133.389 307.897 132.89 308.513 132.89C309.129 132.89 309.628 133.389 309.628 134.005Z"
            fill="#313743" />
        <path
            d="M348.65 134.005C348.65 134.621 348.15 135.12 347.535 135.12C346.919 135.12 346.42 134.621 346.42 134.005C346.42 133.389 346.919 132.89 347.535 132.89C348.15 132.89 348.65 133.389 348.65 134.005Z"
            fill="#313743" />
        <path
            d="M387.672 134.005C387.672 134.621 387.173 135.12 386.557 135.12C385.941 135.12 385.442 134.621 385.442 134.005C385.442 133.389 385.941 132.89 386.557 132.89C387.173 132.89 387.672 133.389 387.672 134.005Z"
            fill="#313743" />
        <path
            d="M426.694 134.005C426.694 134.621 426.195 135.12 425.579 135.12C424.963 135.12 424.464 134.621 424.464 134.005C424.464 133.389 424.963 132.89 425.579 132.89C426.195 132.89 426.694 133.389 426.694 134.005Z"
            fill="#313743" />
        <path
            d="M465.716 134.005C465.716 134.621 465.217 135.12 464.601 135.12C463.985 135.12 463.486 134.621 463.486 134.005C463.486 133.389 463.985 132.89 464.601 132.89C465.217 132.89 465.716 133.389 465.716 134.005Z"
            fill="#313743" />
        <path
            d="M504.739 134.005C504.739 134.621 504.24 135.12 503.625 135.12C503.005 135.12 502.506 134.621 502.506 134.005C502.506 133.389 503.005 132.89 503.625 132.89C504.24 132.89 504.739 133.389 504.739 134.005Z"
            fill="#313743" />
        <path
            d="M543.76 134.005C543.76 134.621 543.261 135.12 542.646 135.12C542.032 135.12 541.532 134.621 541.532 134.005C541.532 133.389 542.032 132.89 542.646 132.89C543.261 132.89 543.76 133.389 543.76 134.005Z"
            fill="#313743" />
        <path
            d="M582.781 134.005C582.781 134.621 582.282 135.12 581.667 135.12C581.053 135.12 580.553 134.621 580.553 134.005C580.553 133.389 581.053 132.89 581.667 132.89C582.282 132.89 582.781 133.389 582.781 134.005Z"
            fill="#313743" />
        <path
            d="M621.803 134.005C621.803 134.621 621.303 135.12 620.688 135.12C620.074 135.12 619.574 134.621 619.574 134.005C619.574 133.389 620.074 132.89 620.688 132.89C621.303 132.89 621.803 133.389 621.803 134.005Z"
            fill="#313743" />
        <path
            d="M660.824 134.005C660.824 134.621 660.329 135.12 659.71 135.12C659.095 135.12 658.595 134.621 658.595 134.005C658.595 133.389 659.095 132.89 659.71 132.89C660.329 132.89 660.824 133.389 660.824 134.005Z"
            fill="#313743" />
        <path
            d="M699.85 134.005C699.85 134.621 699.35 135.12 698.731 135.12C698.116 135.12 697.617 134.621 697.617 134.005C697.617 133.389 698.116 132.89 698.731 132.89C699.35 132.89 699.85 133.389 699.85 134.005Z"
            fill="#313743" />
        <path
            d="M738.871 134.005C738.871 134.621 738.371 135.12 737.757 135.12C737.137 135.12 736.643 134.621 736.643 134.005C736.643 133.389 737.137 132.89 737.757 132.89C738.371 132.89 738.871 133.389 738.871 134.005Z"
            fill="#313743" />
        <path
            d="M777.892 134.005C777.892 134.621 777.393 135.12 776.778 135.12C776.164 135.12 775.664 134.621 775.664 134.005C775.664 133.389 776.164 132.89 776.778 132.89C777.393 132.89 777.892 133.389 777.892 134.005Z"
            fill="#313743" />
        <path
            d="M816.913 134.005C816.913 134.621 816.414 135.12 815.799 135.12C815.185 135.12 814.685 134.621 814.685 134.005C814.685 133.389 815.185 132.89 815.799 132.89C816.414 132.89 816.913 133.389 816.913 134.005Z"
            fill="#313743" />
        <path
            d="M855.935 134.005C855.935 134.621 855.435 135.12 854.82 135.12C854.206 135.12 853.706 134.621 853.706 134.005C853.706 133.389 854.206 132.89 854.82 132.89C855.435 132.89 855.935 133.389 855.935 134.005Z"
            fill="#313743" />
        <path
            d="M894.961 134.005C894.961 134.621 894.461 135.12 893.842 135.12C893.227 135.12 892.728 134.621 892.728 134.005C892.728 133.389 893.227 132.89 893.842 132.89C894.461 132.89 894.961 133.389 894.961 134.005Z"
            fill="#313743" />
        <path
            d="M933.982 134.005C933.982 134.621 933.482 135.12 932.868 135.12C932.248 135.12 931.749 134.621 931.749 134.005C931.749 133.389 932.248 132.89 932.868 132.89C933.482 132.89 933.982 133.389 933.982 134.005Z"
            fill="#313743" />
        <path
            d="M973.003 134.005C973.003 134.621 972.504 135.12 971.889 135.12C971.275 135.12 970.775 134.621 970.775 134.005C970.775 133.389 971.275 132.89 971.889 132.89C972.504 132.89 973.003 133.389 973.003 134.005Z"
            fill="#313743" />
        <path d="M745.643 0H0.244141V155.885H745.643V0Z" fill="url(#paint0_linear_61_10043)" />
    </g>
    <defs>
        <linearGradient id="paint0_linear_61_10043" x1="745.646" y1="77.9424" x2="0.244141" y2="77.9424"
            gradientUnits="userSpaceOnUse">
            <stop stop-color="#11141C" stop-opacity="0" />
            <stop offset="0.7" stop-color="#11141C" />
        </linearGradient>
    </defs>
</svg>